<svg xmlns="http://www.w3.org/2000/svg" xmlns:xlink="http://www.w3.org/1999/xlink" width="42.122" height="65.441" viewBox="0 0 42.122 65.441"><defs><linearGradient id="a" x1="0.5" x2="0.5" y2="1" gradientUnits="objectBoundingBox"><stop offset="0" stop-color="#52b99b"/><stop offset="1" stop-color="#12284c"/></linearGradient><clipPath id="b"><rect width="42.122" height="65.441" fill="#fff" stroke="#fff" stroke-width="1"/></clipPath></defs><g transform="translate(-97.325 -3.461)"><circle cx="12.5" cy="12.5" r="12.5" transform="translate(130.886 48.682) rotate(180)" fill="url(#a)"/><g transform="translate(97.325 3.461)" clip-path="url(#b)"><path d="M26.459,80.464a.719.719,0,0,1-.42-.136A56.959,56.959,0,0,1,14.564,68.433a.717.717,0,1,1,1.163-.84A57.949,57.949,0,0,0,26.454,78.842,58.638,58.638,0,0,0,37.166,67.321a.717.717,0,0,1,1.172.826A57.507,57.507,0,0,1,26.886,80.323a.722.722,0,0,1-.427.141" transform="translate(-5.635 -32.611)" fill="#fff" stroke="#fff" stroke-width="1"/><path d="M32.4,30.83a.717.717,0,0,1-.586-1.13c3.054-4.329,4.6-7.953,4.6-10.772a17.493,17.493,0,1,0-34.987,0c0,3,1.461,6.426,4.6,10.765a.717.717,0,0,1-1.163.84C1.548,25.937,0,22.25,0,18.928a18.927,18.927,0,1,1,37.855,0c0,3.121-1.636,7.023-4.864,11.6a.715.715,0,0,1-.587.3" transform="translate(1.897 2.371)" fill="#fff" stroke="#fff" stroke-width="1"/><path d="M18.928,76.326A18.949,18.949,0,0,1,0,57.4c0-4.35,3.123-10.124,9.283-17.162a107.013,107.013,0,0,1,9.175-9.218.717.717,0,0,1,.939,0c.754.653,18.458,16.112,18.458,26.38A18.949,18.949,0,0,1,18.928,76.326m0-43.806C16.095,35.066,1.434,48.669,1.434,57.4a17.494,17.494,0,0,0,34.987,0c0-8.734-14.66-22.333-17.493-24.879" transform="translate(1.897 -13.729)" fill="#fff" stroke="#fff" stroke-width="1"/><path d="M38.814,99.151a.717.717,0,0,1-.717-.717V83.523a.717.717,0,1,1,1.434,0V98.434a.717.717,0,0,1-.717.717" transform="translate(-17.99 -40.853)" fill="#fff" stroke="#fff" stroke-width="1"/><path d="M36.245,66.322a3.069,3.069,0,1,1,3.069-3.069,3.073,3.073,0,0,1-3.069,3.069m0-4.7a1.635,1.635,0,1,0,1.635,1.635,1.637,1.637,0,0,0-1.635-1.635" transform="translate(-15.421 -29.044)" fill="#fff" stroke="#fff" stroke-width="1"/></g></g></svg>