<svg xmlns="http://www.w3.org/2000/svg" xmlns:xlink="http://www.w3.org/1999/xlink" width="84.857" height="75.076" viewBox="0 0 84.857 75.076"><defs><linearGradient id="a" x1="0.5" x2="0.5" y2="1" gradientUnits="objectBoundingBox"><stop offset="0" stop-color="#52b99b"/><stop offset="1" stop-color="#12284c"/></linearGradient><clipPath id="b"><rect width="84.857" height="63.603" fill="#fff" stroke="#fff" stroke-width="1"/></clipPath></defs><g transform="translate(0 -3.545)"><circle cx="12.5" cy="12.5" r="12.5" transform="translate(28.643 38.901) rotate(-135)" fill="url(#a)"/><g transform="translate(0 15.019)"><g transform="translate(0 0)" clip-path="url(#b)"><path d="M33.653,55.064a.8.8,0,0,1-.581-.251L.218,19.944A.8.8,0,0,1,.107,19l8.5-14.807a.8.8,0,0,1,.692-.4h4.468a.8.8,0,1,1,0,1.6H9.762L1.785,19.281,33.65,53.1,65.239,19.3,56.361,5.387H24.983a.8.8,0,0,1,0-1.6H56.8a.8.8,0,0,1,.672.369l9.446,14.808a.8.8,0,0,1-.09.974L34.235,54.812a.8.8,0,0,1-.581.253Z" transform="translate(8.438 1.038)" fill="#fff" stroke="#fff" stroke-width="1"/><path d="M.8,25.44a.8.8,0,0,1-.174-1.576l39.324-8.85a.8.8,0,0,1,.35,1.557L.973,25.421A.829.829,0,0,1,.8,25.44" transform="translate(8.438 -4.207)" fill="#fff" stroke="#fff" stroke-width="1"/><path d="M87.534,20.2a.8.8,0,0,1-.27-.047L46,5.341a.8.8,0,1,1,.539-1.5L87.8,18.646a.8.8,0,0,1-.27,1.549" transform="translate(-12.851 1.038)" fill="#fff" stroke="#fff" stroke-width="1"/><path d="M34.038,6.382a3.191,3.191,0,1,1,3.191-3.191,3.194,3.194,0,0,1-3.191,3.191m0-4.786a1.6,1.6,0,1,0,1.6,1.6,1.6,1.6,0,0,0-1.6-1.6" transform="translate(-6.003 2.813)" fill="#fff" stroke="#fff" stroke-width="1"/></g></g></g></svg>