<svg xmlns="http://www.w3.org/2000/svg" xmlns:xlink="http://www.w3.org/1999/xlink" width="97.633" height="55.465" viewBox="0 0 97.633 55.465"><defs><linearGradient id="a" x1="0.5" x2="0.5" y2="1" gradientUnits="objectBoundingBox"><stop offset="0" stop-color="#52b99b"/><stop offset="1" stop-color="#12284c"/></linearGradient><clipPath id="b"><rect width="97.633" height="55.465" fill="#fff" stroke="#fff" stroke-width="1"/></clipPath></defs><g transform="translate(-127.684 -3)"><circle cx="12.5" cy="12.5" r="12.5" transform="translate(195.344 40.041) rotate(180)" fill="url(#a)"/><g transform="translate(127.684 3)"><g clip-path="url(#b)"><path d="M59.449,44.1C47.275,44.1,36.99,34.054,36.99,22.165a.788.788,0,0,1,.787-.787H54.51a.787.787,0,0,1,0,1.575H38.581c.441,10.689,9.818,19.573,20.868,19.573,13.494,0,31.631-17.108,34.973-20.376C91.148,18.76,73.105.921,57.419,2.006a.787.787,0,1,1-.11-1.571C64.9-.1,73.735,3.324,83.594,10.592A97.316,97.316,0,0,1,96.1,21.632a.788.788,0,0,1-.018,1.083A118.821,118.821,0,0,1,83.714,33.37C74.154,40.489,65.989,44.1,59.449,44.1" transform="translate(-6.552 3.493)" fill="#fff" stroke="#fff" stroke-width="1"/><path d="M36.862,43.918c-7.085,0-15.416-3.612-24.762-10.735A101.891,101.891,0,0,1,.207,22.515a.788.788,0,0,1-.015-1.049,96.48,96.48,0,0,1,11.9-11.132C21.456,2.993,29.807-.468,36.919.05,48.189.871,59.846,9.3,59.846,21.983c0,11.89-10.526,21.935-22.984,21.935m-35-21.949a102.418,102.418,0,0,0,11.217,9.977c6.226,4.743,15.408,10.4,23.787,10.4,11.605,0,21.41-9.324,21.41-20.36,0-11.767-10.915-19.594-21.467-20.362C22.159.548,4.921,18.614,1.858,21.969" transform="translate(11.023 3.675)" fill="#fff" stroke="#fff" stroke-width="1"/><path d="M83.188,41.826a3.149,3.149,0,1,1,3.149-3.149,3.153,3.153,0,0,1-3.149,3.149m0-4.724a1.575,1.575,0,1,0,1.575,1.575A1.577,1.577,0,0,0,83.188,37.1" transform="translate(-27.005 -13.205)" fill="#fff"/><circle cx="4" cy="4" r="4" transform="translate(52 21.625)" fill="#fff"/></g></g></g></svg>