<svg xmlns="http://www.w3.org/2000/svg" xmlns:xlink="http://www.w3.org/1999/xlink" width="82.681" height="67.011" viewBox="0 0 82.681 67.011"><defs><linearGradient id="a" x1="0.5" x2="0.5" y2="1" gradientUnits="objectBoundingBox"><stop offset="0" stop-color="#52b99b"/><stop offset="1" stop-color="#12284c"/></linearGradient><clipPath id="b"><rect width="82.681" height="65.227" fill="#fff" stroke="#fff" stroke-width="1"/></clipPath></defs><g transform="translate(-87.055 -13.244)"><circle cx="12.5" cy="12.5" r="12.5" transform="translate(153.396 80.255) rotate(180)" fill="url(#a)"/><g transform="translate(87.055 13.244)"><g transform="translate(0 0)" clip-path="url(#b)"><path d="M71.52,51.757h-.011l-19.484-.27a.819.819,0,0,1,.011-1.637h.011L70.17,50.1,45.819,2.6,29.789,33.375l9.4,16.7A.819.819,0,0,1,38.48,51.3h-.011l-18.391-.255a.819.819,0,0,1-.714-1.2l8.564-16.442L20.082,19.47,1.521,50.38a.819.819,0,1,1-1.4-.843L19.4,17.421a.819.819,0,0,1,.7-.4h.012a.819.819,0,0,1,.7.417L28.83,31.673,45.1.44A.817.817,0,0,1,45.825,0h0a.819.819,0,0,1,.726.445l25.695,50.12a.818.818,0,0,1-.728,1.192m-50.091-2.33,15.64.216L28.887,35.109Z" transform="translate(6.464 3.879)" fill="#fff" stroke="#fff" stroke-width="1"/><path d="M82.481,93.552a3.274,3.274,0,1,1,3.274-3.274,3.277,3.277,0,0,1-3.274,3.274m0-4.911a1.637,1.637,0,1,0,1.637,1.637,1.639,1.639,0,0,0-1.637-1.637" transform="translate(-29.523 -35.651)" fill="#fff" stroke="#fff" stroke-width="1"/></g></g></g></svg>